<svg xmlns="http://www.w3.org/2000/svg" viewBox="0 0 7275.79 6750"><defs><style>.cls-1,.cls-2{fill:#fff;}.cls-2{fill-rule:evenodd;}.cls-3{fill:#00ff56;}.cls-4{fill:#0af;}.cls-5{fill:#ff002b;}</style></defs><path class="cls-2" d="M3727.77,4161.08c35.56,61.58,14.46,140.33-47.12,175.89l-2411.97,1392.66,307.35,532.29-1486.82,.05,743.37-1287.65,307.34,532.29,2411.97-1392.66c61.58-35.56,140.33-14.46,175.89,47.13Zm-811.65-2770.45L3659.53,103.01l743.41,1287.62h-614.65v2832.77c0,71.12-57.65,128.76-128.76,128.76s-128.77-57.64-128.77-128.76V1390.63h-614.64Zm631.9,2770.45c-35.56,61.58-14.46,140.33,47.12,175.89l2411.96,1392.66-307.34,532.29,1486.82,.05-743.36-1287.65-307.34,532.29-2411.97-1392.66c-61.58-35.56-140.33-14.46-175.89,47.13Zm-2279.34,1568.55l307.35,532.29-1486.82,.05,743.37-1287.65,307.34,532.29,2136.25-1233.46c-1.93-15.62-2.92-31.54-2.92-47.69,0-3.4,.04-6.79,.13-10.17,3.72-143.94,86.18-268.28,205.89-331.56,16.5-8.72,33.7-16.28,51.5-22.57V1390.63h-614.64L3659.53,103.01l743.41,1287.62h-614.65V3861.16c17.8,6.29,35.01,13.85,51.5,22.57,122.53,64.77,206.02,193.5,206.02,341.73,0,4.93-.09,9.84-.27,14.73-.71,19.02-2.8,37.69-6.17,55.91l2096.51,1210.51,307.34-532.29,743.36,1287.65-1486.82-.05,307.34-532.29-2096.56-1210.55c-14.22,12.17-29.33,23.33-45.23,33.36-59.58,37.57-130.14,59.31-205.78,59.31-84.27,0-162.23-26.98-225.73-72.78-14.86-10.72-28.94-22.47-42.11-35.16l-2123.01,1225.82Zm2116.79-1162.75l-2046.43,1181.6,326.2,564.94-1665.24,.05,832.57-1442.16,326.19,564.94,2063.4-1191.39c-.28-6.43-.42-12.9-.42-19.4,0-177.52,105.66-330.36,257.52-399.07V1442.14h-652.35L3659.53,0l832.62,1442.14h-652.36V3826.39c151.87,68.71,257.53,221.55,257.53,399.07,0,14.65-.72,29.12-2.12,43.4l2021.83,1167.39,326.19-564.94,832.57,1442.16-1665.24-.05,326.2-564.94-2021.83-1167.4c-71.88,51.72-160.08,82.17-255.39,82.17-103.74,0-199.05-36.07-274.06-96.37Z"/><path class="cls-5" d="M3101.23,3625.5l-15.77,15.19c-103.29,99.53-180.88,225.79-221.53,367.83l-5.73,20.02-1375.27,794.07v-1842.66l1618.3-934.32v1579.87Z"/><path class="cls-4" d="M4469.06,4058.54l-5.26-21.29c-38.01-153.84-118.99-290.61-229.28-396.88l-15.77-15.19V2045.25l1618.3,934.3v1868.86l-1367.99-789.87Z"/><path class="cls-3" d="M3380.62,5016.23l21.84,7.13c81.02,26.46,167.46,40.75,257.05,40.75,79.4,0,156.35-11.23,229.26-32.22l21.04-6.05,1367.96,789.85-1618.23,934.31-1640.9-947.38,1361.98-786.39Z"/><path class="cls-1" d="M4095.9,4224.15c0,242.31-196.44,438.75-438.75,438.75s-438.75-196.44-438.75-438.75,196.43-438.75,438.75-438.75,438.75,196.44,438.75,438.75Z"/></svg>