<svg width="18390" height="5000" viewBox="0 0 18390 5000" fill="none" xmlns="http://www.w3.org/2000/svg">
<path d="M12068.9 1160.01C12068.9 1317.41 11943.1 1445.01 11788 1445.01C11632.9 1445.01 11507.1 1317.41 11507.1 1160.01C11507.1 1002.6 11632.9 875 11788 875C11943.1 875 12068.9 1002.6 12068.9 1160.01Z" fill="#E3E4E8"/>
<path fill-rule="evenodd" clip-rule="evenodd" d="M8784.37 4079.03L7769.57 953.147H6908.8L5889.47 4079.03H6451.24L6718.53 3219.41H7950.78L8222.6 4079.03H8784.37ZM7796.75 2722.95H6872.56L7171.56 1775.99L7330.12 1238.15H7339.19L7497.75 1775.99L7796.75 2722.95Z" fill="#E3E4E8"/>
<path d="M9744.44 2929.81L9046.77 4079.03H9649.31L9871.29 3683.7L10134.1 3191.83H10143.1L10405.9 3683.7L10627.9 4079.03H11239.5L10541.8 2929.81L11239.5 1780.59H10636.9L10419.5 2171.32L10156.7 2663.19H10147.6L9880.35 2171.32L9662.9 1780.59H9046.77L9744.44 2929.81Z" fill="#E3E4E8"/>
<path d="M12054 1780.59H11519.4V4079.03H12054V1780.59Z" fill="#E3E4E8"/>
<path fill-rule="evenodd" clip-rule="evenodd" d="M12365.9 2929.81C12365.9 3669.91 12832.5 4125 13489.4 4125C14146.3 4125 14612.9 3669.91 14612.9 2929.81C14612.9 2189.71 14146.3 1734.62 13489.4 1734.62C12832.5 1734.62 12365.9 2189.71 12365.9 2929.81ZM13489.4 3683.7C13154.1 3683.7 12918.6 3444.66 12918.6 2989.57V2870.05C12918.6 2414.96 13154.1 2175.92 13489.4 2175.92C13824.6 2175.92 14064.7 2414.96 14064.7 2870.05V2989.57C14064.7 3444.66 13824.6 3683.7 13489.4 3683.7Z" fill="#E3E4E8"/>
<path d="M15449.3 1780.59H14928.3V4079.03H15462.9V2782.71C15462.9 2364.39 15666.7 2189.71 15956.7 2189.71C16237.6 2189.71 16391.6 2355.2 16391.6 2667.79V4079.03H16926.2V2782.71C16926.2 2364.39 17134.6 2189.71 17424.5 2189.71C17700.9 2189.71 17854.9 2355.2 17854.9 2667.79V4079.03H18389.5V2612.62C18389.5 2028.82 18067.8 1734.62 17637.4 1734.62C17256.9 1734.62 17016.8 1964.46 16876.3 2244.87C16767.6 1904.7 16500.3 1734.62 16169.6 1734.62C15811.7 1734.62 15594.3 1941.48 15449.3 2198.9V1780.59Z" fill="#E3E4E8"/>
<path fill-rule="evenodd" clip-rule="evenodd" d="M2761.31 3082.28C2787.65 3127.9 2772.02 3186.23 2726.41 3212.57L939.766 4244.17L1167.43 4638.46L66.0793 4638.49L616.721 3684.68L844.381 4078.97L2631.02 3047.37C2676.64 3021.03 2734.97 3036.66 2761.31 3082.28Z" fill="#E6E6E6"/>
<path fill-rule="evenodd" clip-rule="evenodd" d="M2160.09 1030.1L2710.76 76.3036L3261.43 1030.1H2806.14V3128.45C2806.14 3181.12 2763.44 3223.83 2710.76 3223.83C2658.08 3223.83 2615.38 3181.12 2615.38 3128.45V1030.1H2160.09Z" fill="#E6E6E6"/>
<path fill-rule="evenodd" clip-rule="evenodd" d="M2628.16 3082.28C2601.82 3127.9 2617.45 3186.23 2663.07 3212.57L4449.71 4244.17L4222.05 4638.46L5323.39 4638.49L4772.75 3684.68L4545.09 4078.97L2758.45 3047.37C2712.83 3021.03 2654.5 3036.66 2628.16 3082.28Z" fill="#E6E6E6"/>
<path d="M2996.9 3129.97C2996.9 3288 2868.79 3416.11 2710.76 3416.11C2552.73 3416.11 2424.62 3288 2424.62 3129.97C2424.62 2971.94 2552.73 2843.83 2710.76 2843.83C2868.79 2843.83 2996.9 2971.94 2996.9 3129.97Z" fill="#E6E6E6"/>
<path fill-rule="evenodd" clip-rule="evenodd" d="M3162.45 1581.32L4284.88 2229.34V3525.57L3342.85 2981.65C3312.93 2860.52 3249.18 2752.92 3162.45 2669.34V1581.32ZM3833.16 4307.92L2710.77 4955.95L1571.59 4298.24L2508.5 3757.27C2572.29 3778.1 2640.31 3789.34 2710.75 3789.34C2773.18 3789.34 2833.73 3780.51 2891.12 3763.99L3833.16 4307.92ZM1136.62 2229.4L2259.05 1581.36V2669.34C2177.82 2747.61 2116.76 2846.95 2084.75 2958.78L1136.62 3506.22V2229.4Z" fill="#E6E6E6"/>
<path fill-rule="evenodd" clip-rule="evenodd" d="M939.766 4244.17L1167.43 4638.46L66.0793 4638.49L616.721 3684.68L844.381 4078.97L2426.78 3165.3C2425.36 3153.72 2424.62 3141.93 2424.62 3129.97C2424.62 3127.45 2424.66 3124.94 2424.72 3122.44C2427.48 3015.82 2488.55 2923.71 2577.23 2876.84C2589.45 2870.38 2602.19 2864.78 2615.38 2860.12V1030.1H2160.09L2710.76 76.3036L3261.43 1030.1H2806.14L2806.14 2860.12C2819.33 2864.78 2832.07 2870.38 2844.29 2876.84C2935.05 2924.81 2996.9 3020.17 2996.9 3129.97C2996.9 3133.62 2996.83 3137.26 2996.7 3140.88C2996.17 3154.97 2994.62 3168.8 2992.13 3182.29L4545.09 4078.97L4772.75 3684.68L5323.39 4638.49L4222.05 4638.46L4449.71 4244.17L2896.7 3347.47C2886.16 3356.48 2874.97 3364.75 2863.19 3372.17C2819.06 3400.01 2766.79 3416.11 2710.76 3416.11C2648.34 3416.11 2590.59 3396.12 2543.56 3362.2C2532.55 3354.26 2522.12 3345.55 2512.36 3336.16L939.766 4244.17ZM2507.75 3382.87L991.883 4258.13L1233.51 4676.61L0 4676.65L616.719 3608.38L858.344 4026.85L2386.78 3144.34C2386.58 3139.58 2386.47 3134.79 2386.47 3129.97C2386.47 2998.47 2464.74 2885.26 2577.23 2834.36V1068.25H2094.01L2710.76 0L3327.52 1068.25H2844.29V2834.36C2956.78 2885.26 3035.05 2998.47 3035.05 3129.97C3035.05 3140.82 3034.52 3151.54 3033.48 3162.12L4531.13 4026.85L4772.76 3608.38L5389.47 4676.65L4155.97 4676.61L4397.59 4258.13L2899.94 3393.39C2846.69 3431.7 2781.36 3454.26 2710.76 3454.26C2633.92 3454.26 2563.32 3427.54 2507.75 3382.87ZM4323.03 2207.31V3591.66L3309.71 3006.57L3305.81 2990.8C3277.66 2876.84 3217.67 2775.53 3135.97 2696.81L3124.29 2685.56V1515.24L4323.03 2207.31ZM2710.77 5000L1495.29 4298.24L2504.16 3715.72L2520.34 3721.01C2580.36 3740.6 2644.39 3751.19 2710.75 3751.19C2769.57 3751.19 2826.57 3742.87 2880.57 3727.33L2896.16 3722.84L3909.46 4307.92L2710.77 5000ZM2297.21 1515.28V2685.56L2285.53 2696.81C2209.02 2770.53 2151.54 2864.06 2121.43 2969.28L2117.18 2984.1L1098.47 3572.31V2207.37L2297.21 1515.28ZM3162.45 1581.32V2669.34C3249.18 2752.92 3312.93 2860.52 3342.85 2981.65L4284.88 3525.57V2229.34L3162.45 1581.32ZM3833.16 4307.92L2891.12 3763.99C2833.73 3780.51 2773.18 3789.34 2710.75 3789.34C2640.31 3789.34 2572.29 3778.1 2508.5 3757.27L1571.59 4298.24L2710.77 4955.95L3833.16 4307.92ZM1136.62 2229.4V3506.22L2084.75 2958.78C2116.76 2846.95 2177.82 2747.61 2259.05 2669.34V1581.36L1136.62 2229.4Z" fill="#E6E6E6"/>
<path d="M2297.21 2685.56L2285.53 2696.81C2209.02 2770.53 2151.54 2864.06 2121.43 2969.28L2117.18 2984.1L1098.47 3572.31V2207.37L2297.21 1515.28V2685.56Z" fill="#FF002B"/>
<path d="M3310.41 3006.33L3306.52 2990.56C3278.36 2876.6 3218.38 2775.29 3136.68 2696.57L3125 2685.32V1515L4323.74 2207.08V3591.42L3310.41 3006.33Z" fill="#00AAFF"/>
<path d="M2504.16 3715.72L2520.34 3721.01C2580.36 3740.6 2644.39 3751.19 2710.75 3751.19C2769.57 3751.19 2826.57 3742.87 2880.57 3727.33L2896.16 3722.84L3909.46 4307.92L2710.77 5000L1495.29 4298.24L2504.16 3715.72Z" fill="#00FF56"/>
<path d="M3034 3129C3034 3308.49 2888.49 3454 2709 3454C2529.51 3454 2384 3308.49 2384 3129C2384 2949.51 2529.51 2804 2709 2804C2888.49 2804 3034 2949.51 3034 3129Z" fill="white"/>
</svg>
