<svg width="7276" height="6750" viewBox="0 0 7276 6750" fill="none" xmlns="http://www.w3.org/2000/svg">
<path fill-rule="evenodd" clip-rule="evenodd" d="M3727.77 4161.08C3763.33 4222.66 3742.23 4301.41 3680.65 4336.97L1268.68 5729.63L1576.03 6261.92L89.2071 6261.97L832.573 4974.32L1139.91 5506.61L3551.88 4113.95C3613.46 4078.39 3692.21 4099.49 3727.77 4161.08Z" fill="#E6E6E6"/>
<path fill-rule="evenodd" clip-rule="evenodd" d="M2916.12 1390.63L3659.53 103.01L4402.94 1390.63H3788.29V4223.4C3788.29 4294.52 3730.64 4352.16 3659.53 4352.16C3588.41 4352.16 3530.76 4294.52 3530.76 4223.4V1390.63H2916.12Z" fill="#E6E6E6"/>
<path fill-rule="evenodd" clip-rule="evenodd" d="M3548.02 4161.08C3512.46 4222.66 3533.56 4301.41 3595.14 4336.97L6007.1 5729.63L5699.76 6261.92L7186.58 6261.97L6443.22 4974.32L6135.88 5506.61L3723.91 4113.95C3662.33 4078.39 3583.58 4099.49 3548.02 4161.08Z" fill="#E6E6E6"/>
<path d="M4045.81 4225.46C4045.81 4438.8 3872.87 4611.75 3659.53 4611.75C3446.19 4611.75 3273.24 4438.8 3273.24 4225.46C3273.24 4012.12 3446.19 3839.18 3659.53 3839.18C3872.87 3839.18 4045.81 4012.12 4045.81 4225.46Z" fill="#E6E6E6"/>
<path fill-rule="evenodd" clip-rule="evenodd" d="M4269.3 2134.78L5784.59 3009.61V4759.52L4512.85 4025.22C4472.45 3861.71 4386.4 3716.44 4269.3 3603.61V2134.78ZM5174.77 5815.69L3659.54 6690.53L2121.65 5802.62L3386.47 5072.32C3472.58 5100.44 3564.42 5115.61 3659.51 5115.61C3743.79 5115.61 3825.53 5103.69 3903.02 5081.39L5174.77 5815.69ZM1534.43 3009.69L3049.72 2134.84V3603.6C2940.06 3709.27 2857.62 3843.39 2814.41 3994.35L1534.43 4733.4V3009.69Z" fill="#E6E6E6"/>
<path fill-rule="evenodd" clip-rule="evenodd" d="M1268.68 5729.63L1576.03 6261.92L89.2071 6261.97L832.573 4974.32L1139.91 5506.61L3276.16 4273.15C3274.23 4257.53 3273.24 4241.61 3273.24 4225.46C3273.24 4222.06 3273.28 4218.67 3273.37 4215.29C3277.09 4071.35 3359.55 3947.01 3479.26 3883.73C3495.76 3875.01 3512.96 3867.45 3530.76 3861.16V1390.63H2916.12L3659.53 103.01L4402.94 1390.63H3788.29L3788.29 3861.16C3806.09 3867.45 3823.3 3875.01 3839.79 3883.73C3962.32 3948.5 4045.81 4077.23 4045.81 4225.46C4045.81 4230.39 4045.72 4235.3 4045.54 4240.19C4044.83 4259.21 4042.74 4277.88 4039.37 4296.1L6135.88 5506.61L6443.22 4974.32L7186.58 6261.97L5699.76 6261.92L6007.1 5729.63L3910.54 4519.08C3896.32 4531.25 3881.21 4542.41 3865.31 4552.44C3805.73 4590.01 3735.17 4611.75 3659.53 4611.75C3575.26 4611.75 3497.3 4584.77 3433.8 4538.97C3418.94 4528.25 3404.86 4516.5 3391.69 4503.81L1268.68 5729.63ZM3385.47 4566.88L1339.04 5748.48L1665.24 6313.42L0 6313.47L832.57 4871.31L1158.76 5436.25L3222.16 4244.86C3221.88 4238.43 3221.74 4231.96 3221.74 4225.46C3221.74 4047.94 3327.4 3895.1 3479.26 3826.39V1442.14H2826.91L3659.53 0L4492.15 1442.14H3839.79V3826.39C3991.66 3895.1 4097.32 4047.94 4097.32 4225.46C4097.32 4240.11 4096.6 4254.58 4095.2 4268.86L6117.03 5436.25L6443.22 4871.31L7275.79 6313.47L5610.55 6313.42L5936.75 5748.48L3914.92 4581.08C3843.04 4632.8 3754.84 4663.25 3659.53 4663.25C3555.79 4663.25 3460.48 4627.18 3385.47 4566.88ZM5836.09 2979.88V4848.73L4468.1 4058.86L4462.84 4037.58C4424.84 3883.73 4343.85 3746.97 4233.56 3640.69L4217.8 3625.5V2045.57L5836.09 2979.88ZM3659.54 6750L2018.64 5802.62L3380.62 5016.23L3402.46 5023.36C3483.48 5049.82 3569.92 5064.11 3659.51 5064.11C3738.91 5064.11 3815.86 5052.88 3888.77 5031.89L3909.81 5025.84L5277.77 5815.69L3659.54 6750ZM3101.23 2045.63V3625.5L3085.46 3640.69C2982.17 3740.22 2904.58 3866.48 2863.93 4008.52L2858.2 4028.54L1482.93 4822.61V2979.95L3101.23 2045.63ZM4269.3 2134.78V3603.61C4386.4 3716.44 4472.45 3861.71 4512.85 4025.22L5784.59 4759.52V3009.61L4269.3 2134.78ZM5174.77 5815.69L3903.02 5081.39C3825.53 5103.69 3743.79 5115.61 3659.51 5115.61C3564.42 5115.61 3472.58 5100.44 3386.47 5072.32L2121.65 5802.62L3659.54 6690.53L5174.77 5815.69ZM1534.43 3009.69V4733.4L2814.41 3994.35C2857.62 3843.39 2940.06 3709.27 3049.72 3603.6V2134.84L1534.43 3009.69Z" fill="#E6E6E6"/>
<path d="M3101.23 3625.5L3085.46 3640.69C2982.17 3740.22 2904.58 3866.48 2863.93 4008.52L2858.2 4028.54L1482.93 4822.61V2979.95L3101.23 2045.63V3625.5Z" fill="#FF002B"/>
<path d="M4469.06 4058.54L4463.8 4037.25C4425.79 3883.41 4344.81 3746.64 4234.52 3640.37L4218.75 3625.18V2045.25L5837.05 2979.55V4848.41L4469.06 4058.54Z" fill="#00AAFF"/>
<path d="M3380.62 5016.23L3402.46 5023.36C3483.48 5049.82 3569.92 5064.11 3659.51 5064.11C3738.91 5064.11 3815.86 5052.88 3888.77 5031.89L3909.81 5025.84L5277.77 5815.69L3659.54 6750L2018.64 5802.62L3380.62 5016.23Z" fill="#00FF56"/>
<path d="M4095.9 4224.15C4095.9 4466.46 3899.46 4662.9 3657.15 4662.9C3414.83 4662.9 3218.4 4466.46 3218.4 4224.15C3218.4 3981.84 3414.83 3785.4 3657.15 3785.4C3899.46 3785.4 4095.9 3981.84 4095.9 4224.15Z" fill="white"/>
</svg>
